<?xml version="1.0" standalone="no"?>
<!DOCTYPE svg PUBLIC "-//W3C//DTD SVG 20010904//EN"
 "http://www.w3.org/TR/2001/REC-SVG-20010904/DTD/svg10.dtd">
<svg version="1.0" xmlns="http://www.w3.org/2000/svg"
 width="800.000000pt" height="800.000000pt" viewBox="0 0 800.000000 800.000000"
 preserveAspectRatio="xMidYMid meet">
<metadata>
Created by potrace 1.11, written by Peter Selinger 2001-2013
</metadata>
<g transform="translate(0.000000,800.000000) scale(0.100000,-0.100000)"
fill="#000000" stroke="none">
<path d="M5537 7065 c-1 -2 -314 -5 -695 -9 -381 -4 -716 -11 -745 -16 -75
-12 -205 -56 -257 -86 -44 -26 -77 -36 -270 -88 -592 -157 -984 -276 -1208
-365 -29 -12 -99 -52 -155 -90 -56 -37 -187 -114 -292 -171 -395 -215 -494
-276 -561 -353 -22 -24 -156 -130 -298 -237 -285 -212 -331 -250 -386 -325
-167 -225 -205 -525 -101 -777 31 -73 42 -92 156 -258 32 -47 128 -188 213
-315 86 -126 179 -264 207 -305 52 -76 150 -219 413 -610 80 -118 221 -325
312 -460 92 -135 238 -351 325 -480 87 -129 187 -277 222 -328 36 -52 121
-178 190 -280 69 -103 151 -213 182 -245 156 -161 379 -247 606 -234 169 10
304 63 467 184 51 38 151 112 222 164 71 52 172 126 225 166 l97 72 189 36
c105 20 224 42 265 50 41 7 149 28 240 45 144 27 179 31 275 26 183 -9 706
-21 940 -21 199 0 227 2 290 22 127 40 221 99 326 203 132 132 204 263 245
450 14 67 14 77 -1 1205 -3 209 -7 567 -10 795 -25 2077 -21 1962 -71 2102
-94 258 -303 452 -562 519 -72 19 -105 20 -535 18 -251 -1 -458 -3 -460 -4z
m930 -330 c174 -50 296 -175 338 -343 10 -43 15 -177 19 -547 13 -1029 16
-1299 21 -1590 3 -165 8 -568 11 -895 3 -327 7 -629 8 -671 4 -117 -10 -195
-49 -276 -65 -131 -185 -225 -325 -252 -32 -6 -278 -13 -585 -16 -291 -3 -633
-8 -760 -10 -126 -3 -397 -5 -601 -5 l-372 -1 -66 25 c-146 55 -248 163 -290
305 -22 74 -25 154 -31 836 -3 330 -7 731 -10 890 -3 160 -7 488 -10 730 -3
242 -8 654 -11 916 -7 527 -7 536 54 652 70 136 202 223 367 241 28 3 381 8
785 12 404 3 736 7 737 8 1 0 161 3 357 4 309 3 362 2 413 -13z m-3029 -337
c-9 -38 -4 -1144 7 -1638 2 -80 6 -428 10 -775 3 -346 8 -697 11 -780 3 -82 3
-147 -1 -144 -5 6 -17 70 -91 499 -13 80 -34 197 -45 260 -11 63 -29 167 -40
230 -38 221 -58 336 -83 480 -15 80 -44 249 -66 375 -22 127 -70 401 -106 610
-75 424 -80 498 -45 599 57 161 185 273 355 311 104 22 106 22 94 -27z m-738
-126 c0 -5 -9 -34 -19 -65 -46 -134 -50 -275 -12 -472 11 -55 23 -120 26 -145
6 -40 31 -183 95 -550 11 -63 40 -232 65 -375 64 -372 91 -524 129 -745 19
-107 51 -287 70 -400 140 -809 197 -1135 209 -1198 8 -40 11 -69 7 -65 -5 4
-27 71 -50 148 -23 77 -80 264 -126 415 -47 151 -100 325 -119 385 -213 696
-274 893 -315 1030 -26 88 -83 273 -125 410 -42 138 -96 313 -120 390 -23 77
-78 255 -121 395 -77 249 -79 258 -78 355 0 113 24 188 85 270 37 50 165 129
306 191 83 36 93 39 93 26z m-810 -501 c0 -121 3 -135 150 -611 17 -52 77
-248 134 -435 382 -1252 549 -1796 581 -1900 14 -44 59 -192 101 -330 42 -137
84 -276 94 -307 10 -32 17 -58 15 -58 -3 0 -31 55 -64 123 -105 217 -216 447
-316 652 -54 110 -123 254 -155 320 -32 66 -106 219 -165 340 -59 121 -136
279 -170 350 -34 72 -102 211 -150 310 -48 99 -120 248 -160 330 -40 83 -122
252 -183 376 -61 125 -118 249 -127 275 -37 105 -14 284 48 375 33 49 324 266
360 269 4 0 7 -35 7 -79z m-747 -543 c9 -92 41 -176 167 -433 62 -126 141
-290 176 -362 67 -139 167 -345 329 -678 54 -110 121 -249 150 -310 29 -60
110 -227 180 -370 70 -143 140 -287 155 -320 15 -33 100 -208 189 -389 89
-181 160 -331 158 -333 -2 -1 -56 75 -120 170 -173 257 -358 531 -488 722 -64
94 -173 256 -244 360 -70 105 -160 237 -200 295 -39 58 -123 182 -187 275 -63
94 -195 288 -294 433 -98 145 -196 291 -216 325 -86 143 -88 299 -8 457 12 23
26 48 31 54 5 6 19 22 30 36 25 31 171 140 180 135 3 -3 9 -33 12 -67z"/>
</g>
</svg>
